<svg width="512" height="512" xmlns="http://www.w3.org/2000/svg">
 <metadata id="metadata3390">image/svg+xml</metadata>
 <defs>
  <linearGradient y2="0.230469" x2="0.894531" y1="0.695313" x1="0.25" id="svg_3">
   <stop offset="0" stop-color="#222222"/>
   <stop offset="1" stop-color="#dddddd"/>
  </linearGradient>
  <linearGradient y2="0.859375" x2="0.179688" y1="0.207031" x1="0.820313" id="svg_6">
   <stop offset="0" stop-color="#000000"/>
   <stop offset="1" stop-color="#ffffff"/>
  </linearGradient>
 </defs>
 <g>
  <title>background</title>
  <rect fill="none" id="canvas_background" height="402" width="582" y="-1" x="-1"/>
 </g>
 <g>
  <title>Layer 1</title>
  <path stroke="null" id="svg_1" d="m189.997454,495.924755c-79.580138,-26.052171 -136.620545,-108.832435 -123.657552,-179.458989c8.174074,-44.535404 180.626435,-314.89636 195.686986,-306.78705c4.915563,2.646759 48.657937,65.679241 97.205274,140.072211c77.767727,119.169689 88.267833,141.391151 88.267833,186.801976c0,92.045866 -84.554326,167.44187 -186.079315,165.924587c-29.626423,-0.442826 -61.766894,-3.391546 -71.423226,-6.552719l0,-0.000017zm79.730308,-46.295685c2.634138,-11.916669 -3.519072,-17.728379 -18.770309,-17.728379c-34.759133,0 -82.975692,-38.354304 -93.748009,-74.572648c-11.491133,-38.635142 -41.959246,-43.230012 -46.459552,-7.006503c-8.670458,69.789749 144.370724,165.38877 158.97785,99.307529l0.000019,0z" stroke-opacity="null" stroke-width="null" fill="url(#svg_3)"/>
  <text stroke="null" transform="matrix(14.670395547894145,0,0,11.377763756735856,-3494.8113176253114,-1829.8950037510251) " font-style="normal" font-weight="bold" xml:space="preserve" text-anchor="start" font-family="Helvetica, Arial, sans-serif" font-size="24" id="svg_4" y="194.852189" x="247.811736" stroke-opacity="null" stroke-width="0" fill="url(#svg_6)">V</text>
 </g>
</svg>